<?xml  version="1.0"  encoding="utf-8"?>
<!--  Generator:  Adobe  Illustrator  20.0.0,  SVG  Export  Plug-In  .  SVG  Version:  6.00  Build  0)   -->
<svg  version="1.1"  xmlns="http://www.w3.org/2000/svg"  xmlns:xlink="http://www.w3.org/1999/xlink"  x="0px"  y="0px"
	  viewBox="0  0  160  90"  style="enable-background:new  0  0  160  90;"  xml:space="preserve">

<g  id="VuMark-UserData"></g>

<g  id="VuMark-ClearSpace">
  <rect  x="5"  y="5"  width="150"  height="80"  stroke="#FFFFFF"  stroke-width="10"  fill="none"/>
</g>

<g  id="VuMark-Border">
  <rect  x="0"  y="0"  width="160"  height="90"  stroke="#000000"  stroke-width="3"  fill="none"/>
</g>

<g  id="VuMark-Background"></g>
<g  id="VuMark-DarkElements">

<polygon  id="d0000"  style="fill:#000000;"  points="  4.0, 4.0    8.0, 4.0    8.0, 8.0    4.0, 8.0"/>
<polygon  id="d0001"  style="fill:#000000;"  points="  9.0, 4.0   13.0, 4.0   13.0, 8.0    9.0, 8.0"/>
<polygon  id="d0002"  style="fill:#000000;"  points=" 14.0, 4.0   18.0, 4.0   18.0, 8.0   14.0, 8.0"/>
<polygon  id="d0003"  style="fill:#000000;"  points=" 19.0, 4.0   23.0, 4.0   23.0, 8.0   19.0, 8.0"/>
<polygon  id="d0004"  style="fill:#000000;"  points=" 24.0, 4.0   28.0, 4.0   28.0, 8.0   24.0, 8.0"/>
<polygon  id="d0005"  style="fill:#000000;"  points=" 29.0, 4.0   33.0, 4.0   33.0, 8.0   29.0, 8.0"/>
<polygon  id="d0006"  style="fill:#000000;"  points=" 34.0, 4.0   38.0, 4.0   38.0, 8.0   34.0, 8.0"/>
<polygon  id="d0007"  style="fill:#000000;"  points=" 39.0, 4.0   43.0, 4.0   43.0, 8.0   39.0, 8.0"/>
<polygon  id="d0032"  style="fill:#000000;"  points=" 44.0, 4.0   48.0, 4.0   48.0, 8.0   44.0, 8.0"/>
<polygon  id="d0033"  style="fill:#000000;"  points=" 49.0, 4.0   53.0, 4.0   53.0, 8.0   49.0, 8.0"/>
<polygon  id="d0008"  style="fill:#000000;"  points="152.0, 4.0  156.0, 4.0  156.0, 8.0  152.0, 8.0"/>
<polygon  id="d0009"  style="fill:#000000;"  points="152.0, 9.0  156.0, 9.0  156.0,13.0  152.0,13.0"/>
<polygon  id="d0010"  style="fill:#000000;"  points="152.0,14.0  156.0,14.0  156.0,18.0  152.0,18.0"/>
<polygon  id="d0011"  style="fill:#000000;"  points="152.0,19.0  156.0,19.0  156.0,23.0  152.0,23.0"/>
<polygon  id="d0012"  style="fill:#000000;"  points="152.0,24.0  156.0,24.0  156.0,28.0  152.0,28.0"/>
<polygon  id="d0013"  style="fill:#000000;"  points="152.0,29.0  156.0,29.0  156.0,33.0  152.0,33.0"/>
<polygon  id="d0014"  style="fill:#000000;"  points="152.0,34.0  156.0,34.0  156.0,38.0  152.0,38.0"/>
<polygon  id="d0015"  style="fill:#000000;"  points="152.0,39.0  156.0,39.0  156.0,43.0  152.0,43.0"/>
<polygon  id="d0016"  style="fill:#000000;"  points="152.0,82.0  156.0,82.0  156.0,86.0  152.0,86.0"/>
<polygon  id="d0017"  style="fill:#000000;"  points="147.0,82.0  151.0,82.0  151.0,86.0  147.0,86.0"/>
<polygon  id="d0018"  style="fill:#000000;"  points="142.0,82.0  146.0,82.0  146.0,86.0  142.0,86.0"/>
<polygon  id="d0019"  style="fill:#000000;"  points="137.0,82.0  141.0,82.0  141.0,86.0  137.0,86.0"/>
<polygon  id="d0020"  style="fill:#000000;"  points="132.0,82.0  136.0,82.0  136.0,86.0  132.0,86.0"/>
<polygon  id="d0021"  style="fill:#000000;"  points="127.0,82.0  131.0,82.0  131.0,86.0  127.0,86.0"/>
<polygon  id="d0022"  style="fill:#000000;"  points="122.0,82.0  126.0,82.0  126.0,86.0  122.0,86.0"/>
<polygon  id="d0023"  style="fill:#000000;"  points="117.0,82.0  121.0,82.0  121.0,86.0  117.0,86.0"/>
<polygon  id="d0024"  style="fill:#000000;"  points="  4.0,82.0    8.0,82.0    8.0,86.0    4.0,86.0"/>
<polygon  id="d0025"  style="fill:#000000;"  points="  4.0,77.0    8.0,77.0    8.0,81.0    4.0,81.0"/>
<polygon  id="d0026"  style="fill:#000000;"  points="  4.0,72.0    8.0,72.0    8.0,76.0    4.0,76.0"/>
<polygon  id="d0027"  style="fill:#000000;"  points="  4.0,67.0    8.0,67.0    8.0,71.0    4.0,71.0"/>
<polygon  id="d0028"  style="fill:#000000;"  points="  4.0,62.0    8.0,62.0    8.0,66.0    4.0,66.0"/>
<polygon  id="d0029"  style="fill:#000000;"  points="  4.0,57.0    8.0,57.0    8.0,61.0    4.0,61.0"/>
<polygon  id="d0030"  style="fill:#000000;"  points="  4.0,52.0    8.0,52.0    8.0,56.0    4.0,56.0"/>
<polygon  id="d0031"  style="fill:#000000;"  points="  4.0,47.0    8.0,47.0    8.0,51.0    4.0,51.0"/>
</g>

<g  id="VuMark-BrightElements">
<polygon  id="b0000"  style="fill:#FFFFFF;"  points="  4.0, 4.0    8.0, 4.0    8.0, 8.0    4.0, 8.0"/>
<polygon  id="b0001"  style="fill:#FFFFFF;"  points="  9.0, 4.0   13.0, 4.0   13.0, 8.0    9.0, 8.0"/>
<polygon  id="b0002"  style="fill:#FFFFFF;"  points=" 14.0, 4.0   18.0, 4.0   18.0, 8.0   14.0, 8.0"/>
<polygon  id="b0003"  style="fill:#FFFFFF;"  points=" 19.0, 4.0   23.0, 4.0   23.0, 8.0   19.0, 8.0"/>
<polygon  id="b0004"  style="fill:#FFFFFF;"  points=" 24.0, 4.0   28.0, 4.0   28.0, 8.0   24.0, 8.0"/>
<polygon  id="b0005"  style="fill:#FFFFFF;"  points=" 29.0, 4.0   33.0, 4.0   33.0, 8.0   29.0, 8.0"/>
<polygon  id="b0006"  style="fill:#FFFFFF;"  points=" 34.0, 4.0   38.0, 4.0   38.0, 8.0   34.0, 8.0"/>
<polygon  id="b0007"  style="fill:#FFFFFF;"  points=" 39.0, 4.0   43.0, 4.0   43.0, 8.0   39.0, 8.0"/>
<polygon  id="b0032"  style="fill:#FFFFFF;"  points=" 44.0, 4.0   48.0, 4.0   48.0, 8.0   44.0, 8.0"/>
<polygon  id="b0033"  style="fill:#FFFFFF;"  points=" 49.0, 4.0   53.0, 4.0   53.0, 8.0   49.0, 8.0"/>
<polygon  id="b0008"  style="fill:#FFFFFF;"  points="152.0, 4.0  156.0, 4.0  156.0, 8.0  152.0, 8.0"/>
<polygon  id="b0009"  style="fill:#FFFFFF;"  points="152.0, 9.0  156.0, 9.0  156.0,13.0  152.0,13.0"/>
<polygon  id="b0010"  style="fill:#FFFFFF;"  points="152.0,14.0  156.0,14.0  156.0,18.0  152.0,18.0"/>
<polygon  id="b0011"  style="fill:#FFFFFF;"  points="152.0,19.0  156.0,19.0  156.0,23.0  152.0,23.0"/>
<polygon  id="b0012"  style="fill:#FFFFFF;"  points="152.0,24.0  156.0,24.0  156.0,28.0  152.0,28.0"/>
<polygon  id="b0013"  style="fill:#FFFFFF;"  points="152.0,29.0  156.0,29.0  156.0,33.0  152.0,33.0"/>
<polygon  id="b0014"  style="fill:#FFFFFF;"  points="152.0,34.0  156.0,34.0  156.0,38.0  152.0,38.0"/>
<polygon  id="b0015"  style="fill:#FFFFFF;"  points="152.0,39.0  156.0,39.0  156.0,43.0  152.0,43.0"/>
<polygon  id="b0016"  style="fill:#FFFFFF;"  points="152.0,82.0  156.0,82.0  156.0,86.0  152.0,86.0"/>
<polygon  id="b0017"  style="fill:#FFFFFF;"  points="147.0,82.0  151.0,82.0  151.0,86.0  147.0,86.0"/>
<polygon  id="b0018"  style="fill:#FFFFFF;"  points="142.0,82.0  146.0,82.0  146.0,86.0  142.0,86.0"/>
<polygon  id="b0019"  style="fill:#FFFFFF;"  points="137.0,82.0  141.0,82.0  141.0,86.0  137.0,86.0"/>
<polygon  id="b0020"  style="fill:#FFFFFF;"  points="132.0,82.0  136.0,82.0  136.0,86.0  132.0,86.0"/>
<polygon  id="b0021"  style="fill:#FFFFFF;"  points="127.0,82.0  131.0,82.0  131.0,86.0  127.0,86.0"/>
<polygon  id="b0022"  style="fill:#FFFFFF;"  points="122.0,82.0  126.0,82.0  126.0,86.0  122.0,86.0"/>
<polygon  id="b0023"  style="fill:#FFFFFF;"  points="117.0,82.0  121.0,82.0  121.0,86.0  117.0,86.0"/>
<polygon  id="b0024"  style="fill:#FFFFFF;"  points="  4.0,82.0    8.0,82.0    8.0,86.0    4.0,86.0"/>
<polygon  id="b0025"  style="fill:#FFFFFF;"  points="  4.0,77.0    8.0,77.0    8.0,81.0    4.0,81.0"/>
<polygon  id="b0026"  style="fill:#FFFFFF;"  points="  4.0,72.0    8.0,72.0    8.0,76.0    4.0,76.0"/>
<polygon  id="b0027"  style="fill:#FFFFFF;"  points="  4.0,67.0    8.0,67.0    8.0,71.0    4.0,71.0"/>
<polygon  id="b0028"  style="fill:#FFFFFF;"  points="  4.0,62.0    8.0,62.0    8.0,66.0    4.0,66.0"/>
<polygon  id="b0029"  style="fill:#FFFFFF;"  points="  4.0,57.0    8.0,57.0    8.0,61.0    4.0,61.0"/>
<polygon  id="b0030"  style="fill:#FFFFFF;"  points="  4.0,52.0    8.0,52.0    8.0,56.0    4.0,56.0"/>
<polygon  id="b0031"  style="fill:#FFFFFF;"  points="  4.0,47.0    8.0,47.0    8.0,51.0    4.0,51.0"/>
</g>

<g  id="VuMark-Origin">
	<circle  id="VuMark_Origin_Locator"  style="fill:none;stroke:#eeeeee;stroke-width:0.75;stroke-miterlimit:10;"  cx="80"  cy="45"  r="1"/>
</g>

<g  id="VuMark-Contour">
	<polygon id="contour_2_"  style="fill:none;stroke:#EC008C;"  points="3.000 3.000,  157.000 3.000,  157.000  87.000,  3.000  87.000"/>
</g>

<g  id="VuMark-AsymmetryMarker">
  <rect x="155" y="-1" width="4" height="4" fill="#FFFFFF"/>
</g>
<g  id="VuMark-Feedback"></g>
<g  id="VuMark-Description">
	<g  id="VuMark:vuforia_aaa999"></g>
	<g  id="IDtype:numeric"></g>
	<g  id="IDlength:999"></g>
	<g  id="MaxID:999"></g>
	<g  id="Elements:34"></g>
	<g></g>
	<g></g>
	<g></g>
	<g></g>
	<g></g>
</g>
</svg>
